<svg t="1716537095377" class="icon" viewBox="0 0 1024 1024" version="1.1" xmlns="http://www.w3.org/2000/svg" p-id="8258" width="32" height="32"><path d="M479.488 128z" p-id="8259" fill="#8a8a8a"></path><path d="M896 64h64v64h-64zM832 128h64v64h-64zM832 704V192H320V64H192v128H64v128h128v512h512v128h128v-128h128v-128h-128z m-128 0H384v-64H320V320h320v64h64v320zM64 896h64v64H64zM128 832h64v64H128z" p-id="8260" fill="#8a8a8a"></path><path d="M384 576h64v64H384zM448 512h64v64H448zM512 448h64v64H512zM576 384h64v64H576z" p-id="8261" fill="#8a8a8a"></path></svg>